<svg id="Capa_1" enable-background="new 0 0 512 512" height="512" viewBox="0 0 512 512" width="512" xmlns="http://www.w3.org/2000/svg"><path d="m181 407h150v90h-150z" fill="#465a61"/><path d="m256 407h75v90h-75z" fill="#3b4a51"/><path d="m512 347v75h-512v-75c0-16.57 13.43-30 30-30h452c16.57 0 30 13.43 30 30z" fill="#596c76"/><path d="m512 347v75h-256v-105h226c16.57 0 30 13.43 30 30z" fill="#465a61"/><path d="m0 0h512v347h-512z" fill="#fff5f5"/><path d="m256 0h256v347h-256z" fill="#e7e7e7"/><path d="m46 152v120h70c8.284 0 15-6.716 15-15v-105z" fill="#ff637b"/><path d="m171 122v135c0 8.284 6.716 15 15 15h70v-150z" fill="#4bb9ec"/><path d="m361 62h90v30h-90z" fill="#465a61"/><path d="m301 62h30v30h-30z" fill="#4bb9ec"/><path d="m361 122h90v30h-90z" fill="#465a61"/><path d="m301 122h30v30h-30z" fill="#fdbf00"/><path d="m361 182h90v30h-90z" fill="#465a61"/><path d="m301 182h30v30h-30z" fill="#e63950"/><path d="m361 242h90v30h-90z" fill="#465a61"/><path d="m301 242h30v30h-30z" fill="#465a61"/><path d="m121 482h270v30h-270z" fill="#596c76"/><path d="m256 482h135v30h-135z" fill="#465a61"/><path d="m186 272h-70v-210h70z" fill="#ffda2d"/></svg>