<svg id="Capa_1" enable-background="new 0 0 512 512" height="512" viewBox="0 0 512 512" width="512" xmlns="http://www.w3.org/2000/svg"><path d="m512 356c0 24.81-20.19 45-45 45h-16v50h-80v-45c0-8.27-6.73-15-15-15s-15 6.73-15 15v45h-85l-12-88 12-107 97.5-14 2.5.36 95 13.64v55h16c24.81 0 45 20.19 45 45z" fill="#57d9ad"/><path d="m512 356c0 24.81-20.19 45-45 45h-16v50h-80v-45c0-8.27-6.73-15-15-15v-148.64l95 13.64v55h16c24.81 0 45 20.19 45 45z" fill="#26bfa6"/><path d="m256 61h-85v45c0 8.27-6.73 15-15 15s-15-6.73-15-15v-45h-80v50h-16c-24.81 0-45 20.19-45 45s20.19 45 45 45h16v55l95 11.37 100-11.37 9-104z" fill="#76e2f8"/><path d="m265 152-9 104-100 11.37v-146.37c8.27 0 15-6.73 15-15v-45h85z" fill="#4bb9ec"/><path d="m391 156c0 8.27 6.73 15 15 15h45v85h-195v-195h55v-16c0-24.81 20.19-45 45-45s45 20.19 45 45v16h50v80h-45c-8.27 0-15 6.73-15 15z" fill="#ff637b"/><path d="m391 156c0 8.27 6.73 15 15 15h45v85h-95v-256c24.81 0 45 20.19 45 45v16h50v80h-45c-8.27 0-15 6.73-15 15z" fill="#e63950"/><path d="m256 256v195h-55v16c0 24.81-20.19 45-45 45s-45-20.19-45-45v-16h-50v-80h45c8.27 0 15-6.73 15-15s-6.73-15-15-15h-45v-85z" fill="#ffda2d"/><path d="m256 256v195h-55v16c0 24.81-20.19 45-45 45v-256z" fill="#fdbf00"/></svg>